<?xml version="1.0" standalone="no"?>
<!DOCTYPE svg PUBLIC "-//W3C//DTD SVG 20010904//EN"
 "http://www.w3.org/TR/2001/REC-SVG-20010904/DTD/svg10.dtd">
<svg version="1.0" xmlns="http://www.w3.org/2000/svg"
 width="512.000000pt" height="512.000000pt" viewBox="0 0 512.000000 512.000000"
 preserveAspectRatio="xMidYMid meet">

<g transform="translate(0.000000,512.000000) scale(0.100000,-0.100000)"
fill="#000000" stroke="none">
<path d="M1533 4810 c-71 -28 -146 -98 -180 -168 -24 -50 -28 -69 -28 -147 0
-108 20 -159 89 -233 l46 -49 -41 -12 c-77 -23 -273 -130 -404 -221 -412 -283
-473 -320 -625 -371 -77 -26 -116 -33 -210 -37 -114 -5 -115 -5 -148 -38 -20
-20 -32 -42 -32 -58 0 -23 426 -1090 466 -1167 22 -43 61 -53 187 -46 235 13
415 89 738 314 326 226 429 286 566 331 58 19 211 47 218 40 2 -2 65 -155 140
-340 l137 -337 -135 -333 -136 -333 -128 -6 c-138 -7 -186 -20 -256 -68 -48
-33 -82 -74 -118 -141 -21 -40 -24 -61 -27 -191 l-4 -146 -148 -5 c-138 -5
-151 -7 -213 -35 -80 -38 -141 -97 -176 -172 -25 -54 -26 -62 -29 -274 l-3
-217 30 -30 29 -30 507 0 c328 0 513 4 526 10 24 13 49 61 49 94 0 14 -13 40
-29 58 l-29 33 -441 3 -441 3 0 123 c0 135 10 163 73 210 l28 21 1179 0 1179
0 28 -21 c63 -47 73 -75 73 -210 l0 -123 -441 -3 -441 -3 -29 -33 c-40 -44
-40 -93 0 -133 l29 -29 512 0 512 0 29 30 30 30 -3 217 c-3 212 -4 220 -29
274 -35 75 -96 134 -176 172 -62 28 -75 30 -213 35 l-148 5 -4 146 c-3 130 -6
151 -27 191 -36 67 -70 108 -118 141 -70 48 -118 61 -256 68 l-128 6 -136 333
-135 333 138 340 138 340 51 -6 c204 -26 343 -94 685 -334 364 -256 544 -336
787 -348 126 -7 165 3 187 46 40 77 466 1144 466 1167 0 16 -12 38 -32 58 -33
33 -35 33 -148 38 -85 4 -136 13 -195 32 -150 48 -236 99 -640 377 -131 90
-328 197 -404 220 l-41 12 46 49 c68 73 89 126 89 228 0 76 -3 92 -33 152 -59
120 -166 188 -297 188 -99 0 -168 -30 -240 -104 -79 -80 -99 -135 -93 -249 5
-91 32 -158 87 -213 l30 -30 -342 -842 c-188 -463 -344 -842 -347 -842 -3 0
-159 379 -347 842 l-342 843 34 35 c105 108 117 297 26 420 -69 94 -143 132
-261 137 -68 2 -96 -1 -137 -17z m224 -223 c32 -35 38 -57 33 -117 -6 -88
-127 -139 -208 -90 -80 49 -80 180 0 230 26 17 45 20 87 17 47 -3 59 -9 88
-40z m1781 23 c86 -53 78 -198 -13 -236 -67 -27 -132 -12 -174 42 -26 33 -29
118 -5 153 42 59 130 78 192 41z m-1630 -999 c100 -246 182 -453 182 -460 0
-6 -8 -11 -19 -11 -47 0 -221 -53 -307 -94 -130 -62 -186 -97 -420 -259 -236
-164 -357 -235 -468 -275 -86 -32 -223 -59 -247 -50 -13 5 -374 876 -374 902
0 6 14 12 30 14 62 7 188 44 272 80 107 47 232 122 420 253 278 194 381 254
511 301 55 19 175 45 217 47 18 1 45 -59 203 -448z m1645 423 c154 -37 278
-104 557 -300 225 -158 356 -236 472 -283 85 -35 197 -66 258 -73 14 -2 25 -8
25 -14 0 -26 -361 -897 -374 -902 -24 -9 -161 18 -245 49 -130 47 -216 100
-591 360 -166 115 -358 211 -489 244 -54 14 -107 25 -117 25 -11 0 -19 5 -19
11 0 7 82 214 182 461 l183 449 50 -6 c27 -4 76 -13 108 -21z m-910 -2233 c42
-105 77 -192 77 -195 0 -4 -72 -6 -160 -6 -88 0 -160 2 -160 6 0 13 154 384
160 384 4 0 41 -85 83 -189z m554 -427 c63 -47 73 -76 73 -205 l0 -119 -710 0
-710 0 0 115 c0 124 7 151 53 193 13 13 37 27 53 32 16 5 295 8 621 7 583 -2
592 -2 620 -23z"/>
<path d="M2533 475 c-45 -19 -67 -57 -60 -103 18 -113 179 -110 194 4 5 36 1
45 -23 72 -35 37 -69 45 -111 27z"/>
</g>
</svg>
